<?xml version="1.0" standalone="no"?>
<!DOCTYPE svg PUBLIC "-//W3C//DTD SVG 20010904//EN"
 "http://www.w3.org/TR/2001/REC-SVG-20010904/DTD/svg10.dtd">
<svg version="1.0" xmlns="http://www.w3.org/2000/svg"
 width="63.000000pt" height="65.000000pt" viewBox="0 0 63.000000 65.000000"
 preserveAspectRatio="xMidYMid meet">

<g transform="translate(0.000000,65.000000) scale(0.100000,-0.100000)"
fill="#FF0000" stroke="none">
<path d="M0 335 l0 -315 315 0 315 0 0 315 0 315 -315 0 -315 0 0 -315z m298
136 l41 -58 -65 -94 c-89 -129 -90 -129 -62 -129 16 1 34 17 61 56 l39 55 37
-53 c22 -32 45 -54 59 -56 12 -2 22 0 22 3 0 4 -20 36 -45 72 -25 35 -45 67
-45 71 0 4 20 36 45 71 25 36 45 68 45 73 0 17 -39 7 -54 -13 l-14 -21 -11 21
c-9 15 -9 27 -1 41 9 17 21 20 91 20 61 0 78 -3 73 -12 -4 -7 -34 -51 -66 -97
l-58 -84 65 -93 c36 -51 65 -95 65 -98 0 -3 -34 -6 -75 -6 l-75 0 -29 40 -29
41 -29 -40 -28 -41 -78 0 c-60 0 -76 3 -71 12 4 7 45 68 91 135 46 66 83 124
83 128 0 17 -55 75 -71 75 -24 0 -24 -5 2 -41 19 -27 19 -69 0 -69 -5 0 -32
34 -60 75 l-52 75 79 0 79 0 41 -59z"/>
</g>
</svg>
